<?xml version="1.0" encoding="UTF-8" standalone="no"?>
<svg
   xmlns:dc="http://purl.org/dc/elements/1.1/"
   xmlns:cc="http://creativecommons.org/ns#"
   xmlns:rdf="http://www.w3.org/1999/02/22-rdf-syntax-ns#"
   xmlns:svg="http://www.w3.org/2000/svg"
   xmlns="http://www.w3.org/2000/svg"
   xmlns:sodipodi="http://sodipodi.sourceforge.net/DTD/sodipodi-0.dtd"
   xmlns:inkscape="http://www.inkscape.org/namespaces/inkscape"
   version="1.1"
   id="twitter-bird"
   x="0px"
   y="0px"
   width="32"
   height="32"
   viewBox="0 0 32 32"
   enable-background="new 0 0 400 400"
   xml:space="preserve"
   inkscape:version="0.48.3.1 r9886"
   sodipodi:docname="twitter.svg"><metadata
   id="metadata9"><rdf:RDF><cc:Work
       rdf:about=""><dc:format>image/svg+xml</dc:format><dc:type
         rdf:resource="http://purl.org/dc/dcmitype/StillImage" /></cc:Work></rdf:RDF></metadata><defs
   id="defs7" /><sodipodi:namedview
   pagecolor="#ffffff"
   bordercolor="#666666"
   borderopacity="1"
   objecttolerance="10"
   gridtolerance="10"
   guidetolerance="10"
   inkscape:pageopacity="0"
   inkscape:pageshadow="2"
   inkscape:window-width="1920"
   inkscape:window-height="1056"
   id="namedview5"
   showgrid="false"
   inkscape:zoom="4.72"
   inkscape:cx="26.655634"
   inkscape:cy="17.79661"
   inkscape:window-x="0"
   inkscape:window-y="24"
   inkscape:window-maximized="1"
   inkscape:current-layer="twitter-bird" />
<path
   d="m 1.7971322,20.3889 c 0,0 3.7282615,5.648918 11.3139178,5.519718 4.890288,-0.14514 11.830288,-2.307906 13.686418,-9.44164 0,0 1.993259,0.338868 3.4054,-1.21048 -1.928732,0.266336 -3.21174,-0.338936 -3.21174,-0.338936 0,0 2.525857,-0.07267 3.082612,-1.565569 -1.492821,0.645651 -3.340872,0.09683 -3.340872,0.09683 0,0 -0.871612,-5.3422058 -6.18159,-5.5358661 0,0 2.837931,-0.5783322 2.394084,-1.2319882 -0.355016,-0.4761436 -2.32941,0.4089026 -2.32941,0.4089026 0,0 1.100212,-0.4842215 1.075985,-1.0006708 -1.113647,0.1290598 -2.135827,0.9522184 -2.135827,0.9522184 0,0 0.31193,-0.500297 0.317291,-0.7101052 -2.652204,1.4740928 -4.454451,6.9642273 -4.454451,6.9642273 0,0 -0.672516,-0.745123 -1.791525,-1.552133 C 10.92677,10.151041 5.9450103,8.2680451 5.9450103,8.2680451 c 0,0 -0.3335798,2.0551469 2.3240576,3.5614709 -1.086708,0.08611 -1.6354574,0.225961 -1.6354574,0.225961 0,0 0,2.184207 3.1687213,2.894385 -1.4686629,0.05374 -1.9528851,0.785429 -1.9528851,0.785429 0,0 0.8285197,1.947523 3.4323433,1.786163 -2.1196745,1.097426 -0.74241,2.593037 0.989876,2.431604 C 6.6981384,24.945608 1.7971322,20.3889 1.7971322,20.3889 z"
   id="path3"
   inkscape:connector-curvature="0"
   style="fill:#505050;fill-opacity:1" />
<path
   sodipodi:type="arc"
   style="fill:#ff0000;fill-opacity:1;stroke:none;stroke-width:1;stroke-linejoin:round;stroke-miterlimit:4;stroke-opacity:1;stroke-dasharray:none"
   id="path3754"
   sodipodi:cx="22.563559"
   sodipodi:cy="11.872881"
   sodipodi:rx="0.63559324"
   sodipodi:ry="0.63559324"
   d="m 23.199152,11.872881 a 0.63559324,0.63559324 0 1 1 -1.271187,0 0.63559324,0.63559324 0 1 1 1.271187,0 z"
   transform="translate(0.67414868,-0.03745267)" /></svg>